<svg width="43" height="41" viewBox="0 0 43 41" fill="none" xmlns="http://www.w3.org/2000/svg">
<g id="Github">
<path id="Vector" d="M21.5 0.024292C9.62722 0.024292 0 9.20569 0 20.5286C0 29.5961 6.16333 37.2739 14.7156 39.985C15.7906 40.1673 16.1728 39.5294 16.1728 39.0054C16.1728 38.5269 16.1489 37.2283 16.1489 35.5196C10.1767 36.7499 8.91056 32.7629 8.91056 32.7629C7.93111 30.3935 6.52167 29.7556 6.52167 29.7556C4.56278 28.5026 6.665 28.5026 6.665 28.5026C8.815 28.6393 9.96167 30.6214 9.96167 30.6214C11.8728 33.7426 15.0022 32.854 16.2206 32.33C16.4117 31.0087 16.9611 30.0973 17.5822 29.5961C12.8044 29.0721 7.78778 27.3179 7.78778 19.4579C7.78778 17.2252 8.62389 15.3798 10.0094 13.9445C9.79444 13.4205 9.05389 11.3473 10.2244 8.52221C10.2244 8.52221 12.04 7.97543 16.125 10.6182C17.845 10.1626 19.6844 9.93473 21.5 9.93473C23.3156 9.93473 25.155 10.1626 26.875 10.6182C30.9839 7.95264 32.7756 8.52221 32.7756 8.52221C33.9461 11.3473 33.2056 13.4205 32.9906 13.9445C34.3761 15.3798 35.1883 17.2024 35.1883 19.4579C35.1883 27.3407 30.1717 29.0721 25.37 29.5733C26.1344 30.2113 26.8272 31.4643 26.8272 33.378C26.8272 36.112 26.8033 38.3219 26.8033 39.0054C26.8033 39.5521 27.1856 40.1901 28.2844 39.985C36.8367 37.2739 43 29.5961 43 20.5286C43 9.20569 33.3728 0.024292 21.5 0.024292Z" fill="white"/>
</g>
</svg>
