<svg width="42" height="41" viewBox="0 0 42 41" fill="none" xmlns="http://www.w3.org/2000/svg">
<g id="linkedin">
<path id="Vector" d="M9.52708 40.1795V13.0893H0.530686V40.1795H9.52708ZM5.02888 9.39974C8.16245 9.39974 10.1336 7.32754 10.1336 4.72465C10.083 2.04595 8.18773 0.024292 5.10469 0.024292C2.02166 0.024292 0 2.04595 0 4.69938C0 7.30227 1.94585 9.37447 4.97834 9.37447H5.02888V9.39974Z" fill="white"/>
<path id="Vector_2" d="M14.5307 40.1796H23.5271V25.0424C23.5271 24.2337 23.5776 23.4251 23.8303 22.8438C24.4874 21.2265 25.9531 19.5586 28.4549 19.5586C31.7148 19.5586 33.0036 22.0352 33.0036 25.6742V40.1796H42V24.6381C42 16.324 37.5524 12.4576 31.639 12.4576C26.787 12.4576 24.639 15.1615 23.4513 17.0316H23.5018V13.0893H14.5307C14.6318 15.6164 14.5307 40.1796 14.5307 40.1796Z" fill="white"/>
</g>
</svg>
