<svg width="522" height="97" viewBox="0 0 522 97" fill="none" xmlns="http://www.w3.org/2000/svg">
<path d="M93.5 48.5C93.5 71.5108 74.2124 90.5 50 90.5C25.7876 90.5 6.5 71.5108 6.5 48.5C6.5 25.4892 25.7876 6.5 50 6.5C74.2124 6.5 93.5 25.4892 93.5 48.5Z" stroke="black" stroke-width="13"/>
<path d="M50 66C59.8444 66 68 58.26 68 48.5C68 38.74 59.8444 31 50 31C40.1556 31 32 38.74 32 48.5C32 58.26 40.1556 66 50 66Z" fill="#7203FF" stroke="black" stroke-width="6"/>
<circle cx="43" cy="41" r="3" fill="white"/>
<circle cx="50" cy="48" r="4" fill="white"/>
<path d="M180.672 81.88C178.88 82.3493 177.28 82.584 175.872 82.584C174.507 82.584 173.291 82.4987 172.224 82.328C171.157 82.1573 170.005 81.816 168.768 81.304C167.573 80.8347 166.443 80.28 165.376 79.64C164.309 79 163.243 78.2107 162.176 77.272C160.213 75.6933 158.421 73.9867 156.8 72.152C155.221 70.3173 152.149 66.8827 147.584 61.848C143.019 56.7707 139.989 53.4 138.496 51.736C137.003 50.072 135.851 49.1973 135.04 49.112V48.472C137.515 48.472 139.157 48.4293 139.968 48.344C140.821 48.216 141.717 48.024 142.656 47.768C143.595 47.4693 144.384 47.0853 145.024 46.616C147.541 44.9947 148.8 42.3067 148.8 38.552C148.8 35.4373 148.096 32.9413 146.688 31.064C145.323 29.1867 143.381 28.2267 140.864 28.184H132.928V66.328C132.928 67.3947 133.312 68.3333 134.08 69.144C134.891 69.9547 135.872 70.36 137.024 70.36H137.792L137.856 71H123.84V70.36H124.672C125.739 70.36 126.677 69.976 127.488 69.208C128.299 68.44 128.725 67.5013 128.768 66.392V30.872C128.725 29.7627 128.299 28.824 127.488 28.056C126.72 27.2453 125.781 26.84 124.672 26.84H123.84V26.2H141.12C144.875 26.2 147.883 27.2667 150.144 29.4C152.448 31.4907 153.6 34.2853 153.6 37.784C153.6 41.24 152.555 44.2267 150.464 46.744C148.373 49.2187 145.813 50.456 142.784 50.456C142.784 50.456 142.763 50.456 142.72 50.456C144.171 51.992 145.813 53.784 147.648 55.832C155.029 63.9813 159.765 69.1013 161.856 71.192C163.947 73.2827 165.781 74.9893 167.36 76.312C168.981 77.6773 170.411 78.68 171.648 79.32C174.165 80.6853 176.661 81.368 179.136 81.368C179.648 81.368 180.16 81.3253 180.672 81.24V81.88ZM166.422 70.36C167.531 70.36 168.47 69.976 169.238 69.208C170.049 68.3973 170.475 67.4373 170.518 66.328V30.488C170.518 29.464 170.113 28.6107 169.302 27.928C168.491 27.2027 167.531 26.84 166.422 26.84H165.654L165.59 26.2H178.582C179.905 26.2 181.334 26.072 182.87 25.816C184.449 25.56 185.558 25.304 186.198 25.048V33.112H185.558V31.96C185.558 30.936 185.195 30.0613 184.47 29.336C183.787 28.6107 182.955 28.2267 181.974 28.184H174.678V47.96H186.838C187.691 47.9173 188.417 47.5973 189.014 47C189.611 46.4027 189.91 45.656 189.91 44.76V43.864H190.55V53.976H189.91V53.016C189.91 52.1627 189.611 51.4373 189.014 50.84C188.459 50.2427 187.755 49.9227 186.902 49.88H174.678V69.016H188.31C191.467 69.016 193.878 68.312 195.542 66.904C197.206 65.496 198.593 63.4053 199.702 60.632H200.342L196.63 71H165.59V70.36H166.422ZM250.383 48.536C250.383 55.8747 248.399 61.6133 244.431 65.752C240.506 69.848 234.938 71.896 227.727 71.896C222.863 71.896 218.468 70.872 214.543 68.824C210.66 66.776 207.631 63.9813 205.455 60.44C203.322 56.8987 202.255 52.952 202.255 48.6C202.255 44.2053 203.322 40.2373 205.455 36.696C207.588 33.1547 210.532 30.3813 214.287 28.376C218.042 26.328 222.223 25.304 226.831 25.304C229.732 25.304 232.676 25.7093 235.663 26.52C238.692 27.288 241.21 28.3333 243.215 29.656L244.495 38.68H243.919C243.023 35.096 240.954 32.3013 237.711 30.296C234.468 28.248 230.863 27.224 226.895 27.224C221.22 27.224 216.484 29.2507 212.687 33.304C208.932 37.3147 207.055 42.3707 207.055 48.472C207.055 54.5733 208.996 59.6933 212.879 63.832C216.804 67.928 221.924 69.976 228.239 69.976C234.554 69.976 239.695 67.928 243.663 63.832C247.674 59.736 249.679 54.1253 249.679 47H250.319C250.362 47.512 250.383 48.024 250.383 48.536ZM269.666 41.112C269.495 40.5573 269.41 40.088 269.41 39.704C269.41 39.2773 269.431 38.808 269.474 38.296C269.516 37.784 269.602 37.08 269.73 36.184C269.9 35.288 270.199 34.4133 270.626 33.56C271.052 32.664 271.543 31.8107 272.098 31C272.652 30.1893 273.356 29.4427 274.21 28.76C275.106 28.0773 276.087 27.48 277.154 26.968C279.415 25.8587 282.167 25.304 285.41 25.304C291.938 25.304 297.25 27.48 301.346 31.832C305.484 36.1413 307.554 41.6667 307.554 48.408C307.554 55.1493 305.122 60.76 300.258 65.24C295.394 69.6773 289.228 71.896 281.762 71.896C274.295 71.896 268.087 69.6773 263.138 65.24C258.231 60.8027 255.778 55.0427 255.778 47.96C255.778 43.3947 256.844 39.3413 258.978 35.8C261.111 32.2587 264.162 29.4853 268.13 27.48L268.514 28.056C265.74 29.8907 263.735 32.536 262.498 35.992C261.303 39.448 260.706 43.1173 260.706 47C260.706 54.2107 262.668 59.8427 266.594 63.896C270.519 67.9493 275.554 69.976 281.698 69.976C287.842 69.976 292.855 67.9493 296.738 63.896C300.663 59.8 302.626 54.424 302.626 47.768C302.626 42.008 301.068 37.144 297.954 33.176C294.882 29.208 290.53 27.224 284.898 27.224C282.38 27.224 280.098 27.672 278.05 28.568C274.338 30.1467 271.884 32.7493 270.69 36.376C270.348 37.4427 270.178 38.36 270.178 39.128C270.178 39.896 270.22 40.5147 270.306 40.984L269.666 41.112ZM372.766 82.136C367.347 82.136 362.91 80.408 359.454 76.952C356.894 74.392 355.209 71.1707 354.398 67.288C350.345 70.36 345.374 71.896 339.486 71.896C334.835 71.896 330.59 70.8933 326.75 68.888C322.953 66.84 319.966 64.0453 317.79 60.504C315.657 56.9627 314.59 52.9733 314.59 48.536C314.59 44.0987 315.657 40.1093 317.79 36.568C319.966 32.984 322.953 30.2107 326.75 28.248C330.547 26.2853 334.793 25.304 339.486 25.304C345.374 25.304 350.558 26.7547 355.038 29.656L356.318 38.68H355.742C354.462 33.7307 351.561 30.36 347.038 28.568C344.819 27.672 342.302 27.224 339.486 27.224C333.726 27.224 328.926 29.2293 325.086 33.24C321.289 37.2507 319.39 42.3493 319.39 48.536C319.39 54.68 321.31 59.7787 325.15 63.832C328.99 67.8853 333.769 69.9333 339.486 69.976C342.259 69.976 344.905 69.4853 347.422 68.504C349.939 67.5227 352.094 66.1573 353.886 64.408V53.08C353.886 52.1413 353.609 51.4373 353.054 50.968C352.499 50.456 351.71 50.2 350.686 50.2H349.662V49.56H362.206V50.2H361.246C360.179 50.2 359.369 50.456 358.814 50.968C358.259 51.4373 358.003 52.1413 358.046 53.08V62.936C358.302 69.6773 360.499 74.4987 364.638 77.4C367.539 79.448 371.294 80.472 375.902 80.472C377.822 80.472 379.913 80.28 382.174 79.896L382.238 80.536C378.825 81.6027 375.667 82.136 372.766 82.136ZM430.77 80.728C427.357 81.7947 424.285 81.9867 421.554 81.304C418.695 80.536 416.221 79.3413 414.13 77.72C412.125 76.0987 410.077 74.1573 407.986 71.896L374.258 34.52V66.52C374.301 68.0133 374.962 69.1227 376.242 69.848C376.839 70.1893 377.479 70.36 378.162 70.36H379.378V71H366.194V70.36H367.41C368.477 70.36 369.394 69.9973 370.162 69.272C370.93 68.504 371.314 67.5653 371.314 66.456V31.32C371.101 31.0213 370.674 30.4667 370.034 29.656C369.394 28.8027 368.861 28.12 368.434 27.608C368.007 27.096 367.431 26.4347 366.706 25.624C365.981 24.7707 365.298 24.088 364.658 23.576C364.061 23.064 363.357 22.4667 362.546 21.784C361.266 20.8027 359.901 20.0987 358.45 19.672C356.999 19.2453 355.783 19.032 354.802 19.032C353.778 19.032 352.69 19.2027 351.538 19.544L351.282 18.904C353.33 18.0507 355.314 17.624 357.234 17.624C359.111 17.624 360.733 17.8587 362.098 18.328C363.463 18.7547 364.935 19.544 366.514 20.696C368.093 21.848 369.373 22.9147 370.354 23.896C371.378 24.8773 372.594 26.1573 374.002 27.736L406.258 63.576V30.744C406.215 29.6347 405.81 28.7173 405.042 27.992C404.274 27.224 403.357 26.84 402.29 26.84H401.074V26.2H414.258V26.84H413.106C412.039 26.84 411.122 27.224 410.354 27.992C409.586 28.7173 409.181 29.6133 409.138 30.68V66.84C409.565 67.3093 410.162 68.0133 410.93 68.952C411.741 69.8907 412.295 70.552 412.594 70.936C412.935 71.32 413.426 71.8747 414.066 72.6C414.706 73.3253 415.239 73.88 415.666 74.264C416.135 74.6907 416.69 75.2027 417.33 75.8C418.013 76.44 418.631 76.9307 419.186 77.272C419.783 77.656 420.445 78.0827 421.17 78.552C422.194 79.1493 423.346 79.5973 424.626 79.896C425.949 80.1947 427.015 80.344 427.826 80.344C428.679 80.344 429.575 80.2587 430.514 80.088L430.77 80.728ZM437.671 70.36H438.503V71H424.487V70.36H425.319C426.428 70.36 427.388 69.976 428.199 69.208C429.009 68.3973 429.415 67.4373 429.415 66.328V27.928L422.567 28.312C418.257 28.568 416.102 30.1253 416.102 32.984C416.102 34.136 416.465 35.1173 417.191 35.928C417.959 36.7387 419.153 37.1867 420.775 37.272V37.656C420.177 37.784 419.58 37.848 418.983 37.848C417.105 37.848 415.697 37.1013 414.758 35.608C414.204 34.7547 413.926 33.816 413.926 32.792C413.926 29.1653 416.679 27.0533 422.183 26.456C422.225 26.456 424.337 26.328 428.519 26.072C432.743 25.7733 436.071 25.3893 438.503 24.92L438.631 25.56C436.796 25.8587 435.495 26.4773 434.727 27.416C433.959 28.3547 433.575 29.656 433.575 31.32V66.328C433.617 67.4373 434.023 68.3973 434.791 69.208C435.601 69.976 436.561 70.36 437.671 70.36ZM505.932 76.696C501.964 81.304 496.63 83.608 489.932 83.608C484.812 83.608 479.585 82.712 474.252 80.92C468.193 78.872 463.414 77.08 459.916 75.544C453.345 72.6427 448.972 71.128 446.796 71H446.028V70.424L472.908 28.056H451.34C449.889 28.0987 448.801 28.7387 448.076 29.976C447.734 30.5733 447.564 31.2133 447.564 31.896V33.048H446.924V24.984C447.564 25.24 448.694 25.496 450.316 25.752C451.937 26.008 453.046 26.136 453.644 26.136C454.284 26.136 454.625 26.136 454.668 26.136H472.524C474.316 26.136 475.83 26.0293 477.068 25.816C478.305 25.6027 479.052 25.432 479.308 25.304V25.88L451.34 70.04C451.724 70.1253 454.006 70.8507 458.188 72.216C472.78 76.9947 483.596 79.384 490.636 79.384C496.054 79.384 501.046 78.3173 505.612 76.184L505.932 76.696ZM487.547 70.36C488.656 70.36 489.595 69.976 490.363 69.208C491.174 68.3973 491.6 67.4373 491.643 66.328V30.488C491.643 29.464 491.238 28.6107 490.427 27.928C489.616 27.2027 488.656 26.84 487.547 26.84H486.779L486.715 26.2H499.707C501.03 26.2 502.459 26.072 503.995 25.816C505.574 25.56 506.683 25.304 507.323 25.048V33.112H506.683V31.96C506.683 30.936 506.32 30.0613 505.595 29.336C504.912 28.6107 504.08 28.2267 503.099 28.184H495.803V47.96H507.963C508.816 47.9173 509.542 47.5973 510.139 47C510.736 46.4027 511.035 45.656 511.035 44.76V43.864H511.675V53.976H511.035V53.016C511.035 52.1627 510.736 51.4373 510.139 50.84C509.584 50.2427 508.88 49.9227 508.027 49.88H495.803V69.016H509.435C512.592 69.016 515.003 68.312 516.667 66.904C518.331 65.496 519.718 63.4053 520.827 60.632H521.467L517.755 71H486.715V70.36H487.547Z" fill="#7203FF"/>
</svg>
