<svg width="336" height="80" viewBox="0 0 336 80" fill="none" xmlns="http://www.w3.org/2000/svg">
<path d="M94.5 40C94.5 58.1359 78.7591 73.5 58.5 73.5C38.2409 73.5 22.5 58.1359 22.5 40C22.5 21.8641 38.2409 6.5 58.5 6.5C78.7591 6.5 94.5 21.8641 94.5 40Z" stroke="black" stroke-width="13"/>
<path d="M59 57C68.8444 57 77 49.26 77 39.5C77 29.74 68.8444 22 59 22C49.1556 22 41 29.74 41 39.5C41 49.26 49.1556 57 59 57Z" fill="#7203FF" stroke="black" stroke-width="6"/>
<circle cx="52" cy="32" r="3" fill="white"/>
<circle cx="59" cy="39" r="4" fill="white"/>
<path d="M144.128 61.12C143.12 61.384 142.22 61.516 141.428 61.516C140.66 61.516 139.976 61.468 139.376 61.372C138.776 61.276 138.128 61.084 137.432 60.796C136.76 60.532 136.124 60.22 135.524 59.86C134.924 59.5 134.324 59.056 133.724 58.528C132.62 57.64 131.612 56.68 130.7 55.648C129.812 54.616 128.084 52.684 125.516 49.852C122.948 46.996 121.244 45.1 120.404 44.164C119.564 43.228 118.916 42.736 118.46 42.688V42.328C119.852 42.328 120.776 42.304 121.232 42.256C121.712 42.184 122.216 42.076 122.744 41.932C123.272 41.764 123.716 41.548 124.076 41.284C125.492 40.372 126.2 38.86 126.2 36.748C126.2 34.996 125.804 33.592 125.012 32.536C124.244 31.48 123.152 30.94 121.736 30.916H117.272V52.372C117.272 52.972 117.488 53.5 117.92 53.956C118.376 54.412 118.928 54.64 119.576 54.64H120.008L120.044 55H112.16V54.64H112.628C113.228 54.64 113.756 54.424 114.212 53.992C114.668 53.56 114.908 53.032 114.932 52.408V32.428C114.908 31.804 114.668 31.276 114.212 30.844C113.78 30.388 113.252 30.16 112.628 30.16H112.16V29.8H121.88C123.992 29.8 125.684 30.4 126.956 31.6C128.252 32.776 128.9 34.348 128.9 36.316C128.9 38.26 128.312 39.94 127.136 41.356C125.96 42.748 124.52 43.444 122.816 43.444C122.816 43.444 122.804 43.444 122.78 43.444C123.596 44.308 124.52 45.316 125.552 46.468C129.704 51.052 132.368 53.932 133.544 55.108C134.72 56.284 135.752 57.244 136.64 57.988C137.552 58.756 138.356 59.32 139.052 59.68C140.468 60.448 141.872 60.832 143.264 60.832C143.552 60.832 143.84 60.808 144.128 60.76V61.12ZM136.112 54.64C136.736 54.64 137.264 54.424 137.696 53.992C138.152 53.536 138.392 52.996 138.416 52.372V32.212C138.416 31.636 138.188 31.156 137.732 30.772C137.276 30.364 136.736 30.16 136.112 30.16H135.68L135.644 29.8H142.952C143.696 29.8 144.5 29.728 145.364 29.584C146.252 29.44 146.876 29.296 147.236 29.152V33.688H146.876V33.04C146.876 32.464 146.672 31.972 146.264 31.564C145.88 31.156 145.412 30.94 144.86 30.916H140.756V42.04H147.596C148.076 42.016 148.484 41.836 148.82 41.5C149.156 41.164 149.324 40.744 149.324 40.24V39.736H149.684V45.424H149.324V44.884C149.324 44.404 149.156 43.996 148.82 43.66C148.508 43.324 148.112 43.144 147.632 43.12H140.756V53.884H148.424C150.2 53.884 151.556 53.488 152.492 52.696C153.428 51.904 154.208 50.728 154.832 49.168H155.192L153.104 55H135.644V54.64H136.112ZM183.34 42.364C183.34 46.492 182.224 49.72 179.992 52.048C177.784 54.352 174.652 55.504 170.596 55.504C167.86 55.504 165.388 54.928 163.18 53.776C160.996 52.624 159.292 51.052 158.068 49.06C156.868 47.068 156.268 44.848 156.268 42.4C156.268 39.928 156.868 37.696 158.068 35.704C159.268 33.712 160.924 32.152 163.036 31.024C165.148 29.872 167.5 29.296 170.092 29.296C171.724 29.296 173.38 29.524 175.06 29.98C176.764 30.412 178.18 31 179.308 31.744L180.028 36.82H179.704C179.2 34.804 178.036 33.232 176.212 32.104C174.388 30.952 172.36 30.376 170.128 30.376C166.936 30.376 164.272 31.516 162.136 33.796C160.024 36.052 158.968 38.896 158.968 42.328C158.968 45.76 160.06 48.64 162.244 50.968C164.452 53.272 167.332 54.424 170.884 54.424C174.436 54.424 177.328 53.272 179.56 50.968C181.816 48.664 182.944 45.508 182.944 41.5H183.304C183.328 41.788 183.34 42.076 183.34 42.364ZM194.187 38.188C194.091 37.876 194.043 37.612 194.043 37.396C194.043 37.156 194.055 36.892 194.079 36.604C194.103 36.316 194.151 35.92 194.223 35.416C194.319 34.912 194.487 34.42 194.727 33.94C194.967 33.436 195.243 32.956 195.555 32.5C195.867 32.044 196.263 31.624 196.743 31.24C197.247 30.856 197.799 30.52 198.399 30.232C199.671 29.608 201.219 29.296 203.043 29.296C206.715 29.296 209.703 30.52 212.007 32.968C214.335 35.392 215.499 38.5 215.499 42.292C215.499 46.084 214.131 49.24 211.395 51.76C208.659 54.256 205.191 55.504 200.991 55.504C196.791 55.504 193.299 54.256 190.515 51.76C187.755 49.264 186.375 46.024 186.375 42.04C186.375 39.472 186.975 37.192 188.175 35.2C189.375 33.208 191.091 31.648 193.323 30.52L193.539 30.844C191.979 31.876 190.851 33.364 190.155 35.308C189.483 37.252 189.147 39.316 189.147 41.5C189.147 45.556 190.251 48.724 192.459 51.004C194.667 53.284 197.499 54.424 200.955 54.424C204.411 54.424 207.231 53.284 209.415 51.004C211.623 48.7 212.727 45.676 212.727 41.932C212.727 38.692 211.851 35.956 210.099 33.724C208.371 31.492 205.923 30.376 202.755 30.376C201.339 30.376 200.055 30.628 198.903 31.132C196.815 32.02 195.435 33.484 194.763 35.524C194.571 36.124 194.475 36.64 194.475 37.072C194.475 37.504 194.499 37.852 194.547 38.116L194.187 38.188ZM252.181 61.264C249.133 61.264 246.637 60.292 244.693 58.348C243.253 56.908 242.305 55.096 241.849 52.912C239.569 54.64 236.773 55.504 233.461 55.504C230.845 55.504 228.457 54.94 226.297 53.812C224.161 52.66 222.481 51.088 221.257 49.096C220.057 47.104 219.457 44.86 219.457 42.364C219.457 39.868 220.057 37.624 221.257 35.632C222.481 33.616 224.161 32.056 226.297 30.952C228.433 29.848 230.821 29.296 233.461 29.296C236.773 29.296 239.689 30.112 242.209 31.744L242.929 36.82H242.605C241.885 34.036 240.253 32.14 237.709 31.132C236.461 30.628 235.045 30.376 233.461 30.376C230.221 30.376 227.521 31.504 225.361 33.76C223.225 36.016 222.157 38.884 222.157 42.364C222.157 45.82 223.237 48.688 225.397 50.968C227.557 53.248 230.245 54.4 233.461 54.424C235.021 54.424 236.509 54.148 237.925 53.596C239.341 53.044 240.553 52.276 241.561 51.292V44.92C241.561 44.392 241.405 43.996 241.093 43.732C240.781 43.444 240.337 43.3 239.761 43.3H239.185V42.94H246.241V43.3H245.701C245.101 43.3 244.645 43.444 244.333 43.732C244.021 43.996 243.877 44.392 243.901 44.92V50.464C244.045 54.256 245.281 56.968 247.609 58.6C249.241 59.752 251.353 60.328 253.945 60.328C255.025 60.328 256.201 60.22 257.473 60.004L257.509 60.364C255.589 60.964 253.813 61.264 252.181 61.264ZM284.808 60.472C282.888 61.072 281.16 61.18 279.624 60.796C278.016 60.364 276.624 59.692 275.448 58.78C274.32 57.868 273.168 56.776 271.992 55.504L253.02 34.48V52.48C253.044 53.32 253.416 53.944 254.136 54.352C254.472 54.544 254.832 54.64 255.216 54.64H255.9V55H248.484V54.64H249.168C249.768 54.64 250.284 54.436 250.716 54.028C251.148 53.596 251.364 53.068 251.364 52.444V32.68C251.244 32.512 251.004 32.2 250.644 31.744C250.284 31.264 249.984 30.88 249.744 30.592C249.504 30.304 249.18 29.932 248.772 29.476C248.364 28.996 247.98 28.612 247.62 28.324C247.284 28.036 246.888 27.7 246.432 27.316C245.712 26.764 244.944 26.368 244.128 26.128C243.312 25.888 242.628 25.768 242.076 25.768C241.5 25.768 240.888 25.864 240.24 26.056L240.096 25.696C241.248 25.216 242.364 24.976 243.444 24.976C244.5 24.976 245.412 25.108 246.18 25.372C246.948 25.612 247.776 26.056 248.664 26.704C249.552 27.352 250.272 27.952 250.824 28.504C251.4 29.056 252.084 29.776 252.876 30.664L271.02 50.824V32.356C270.996 31.732 270.768 31.216 270.336 30.808C269.904 30.376 269.388 30.16 268.788 30.16H268.104V29.8H275.52V30.16H274.872C274.272 30.16 273.756 30.376 273.324 30.808C272.892 31.216 272.664 31.72 272.64 32.32V52.66C272.88 52.924 273.216 53.32 273.648 53.848C274.104 54.376 274.416 54.748 274.584 54.964C274.776 55.18 275.052 55.492 275.412 55.9C275.772 56.308 276.072 56.62 276.312 56.836C276.576 57.076 276.888 57.364 277.248 57.7C277.632 58.06 277.98 58.336 278.292 58.528C278.628 58.744 279 58.984 279.408 59.248C279.984 59.584 280.632 59.836 281.352 60.004C282.096 60.172 282.696 60.256 283.152 60.256C283.632 60.256 284.136 60.208 284.664 60.112L284.808 60.472ZM288.69 54.64H289.158V55H281.274V54.64H281.742C282.366 54.64 282.906 54.424 283.362 53.992C283.818 53.536 284.046 52.996 284.046 52.372V30.772L280.194 30.988C277.77 31.132 276.558 32.008 276.558 33.616C276.558 34.264 276.762 34.816 277.17 35.272C277.602 35.728 278.274 35.98 279.186 36.028V36.244C278.85 36.316 278.514 36.352 278.178 36.352C277.122 36.352 276.33 35.932 275.802 35.092C275.49 34.612 275.334 34.084 275.334 33.508C275.334 31.468 276.882 30.28 279.978 29.944C280.002 29.944 281.19 29.872 283.542 29.728C285.918 29.56 287.79 29.344 289.158 29.08L289.23 29.44C288.198 29.608 287.466 29.956 287.034 30.484C286.602 31.012 286.386 31.744 286.386 32.68V52.372C286.41 52.996 286.638 53.536 287.07 53.992C287.526 54.424 288.066 54.64 288.69 54.64ZM327.086 58.204C324.854 60.796 321.854 62.092 318.086 62.092C315.206 62.092 312.266 61.588 309.266 60.58C305.858 59.428 303.17 58.42 301.202 57.556C297.506 55.924 295.046 55.072 293.822 55H293.39V54.676L308.51 30.844H296.378C295.562 30.868 294.95 31.228 294.542 31.924C294.35 32.26 294.254 32.62 294.254 33.004V33.652H293.894V29.116C294.254 29.26 294.89 29.404 295.802 29.548C296.714 29.692 297.338 29.764 297.674 29.764C298.034 29.764 298.226 29.764 298.25 29.764H308.294C309.302 29.764 310.154 29.704 310.85 29.584C311.546 29.464 311.966 29.368 312.11 29.296V29.62L296.378 54.46C296.594 54.508 297.878 54.916 300.23 55.684C308.438 58.372 314.522 59.716 318.482 59.716C321.53 59.716 324.338 59.116 326.906 57.916L327.086 58.204ZM316.745 54.64C317.369 54.64 317.897 54.424 318.329 53.992C318.785 53.536 319.025 52.996 319.049 52.372V32.212C319.049 31.636 318.821 31.156 318.365 30.772C317.909 30.364 317.369 30.16 316.745 30.16H316.313L316.277 29.8H323.585C324.329 29.8 325.133 29.728 325.997 29.584C326.885 29.44 327.509 29.296 327.869 29.152V33.688H327.509V33.04C327.509 32.464 327.305 31.972 326.897 31.564C326.513 31.156 326.045 30.94 325.493 30.916H321.389V42.04H328.229C328.709 42.016 329.117 41.836 329.453 41.5C329.789 41.164 329.957 40.744 329.957 40.24V39.736H330.317V45.424H329.957V44.884C329.957 44.404 329.789 43.996 329.453 43.66C329.141 43.324 328.745 43.144 328.265 43.12H321.389V53.884H329.057C330.833 53.884 332.189 53.488 333.125 52.696C334.061 51.904 334.841 50.728 335.465 49.168H335.825L333.737 55H316.277V54.64H316.745Z" fill="white"/>
</svg>
